<?xml version="1.0" encoding="UTF-8"?>
<svg id="Layer_1" data-name="Layer 1" xmlns="http://www.w3.org/2000/svg" viewBox="0 0 1927 1080">
  <defs>
    <style>
      .cls-1 {
        fill: #fff;
      }

      .cls-2 {
        fill: #c69c6d;
      }

      .cls-3 {
        fill: none;
        stroke: #fff;
        stroke-miterlimit: 10;
        stroke-width: 5px;
      }

      .cls-4 {
        fill: red;
      }

      .cls-5 {
        fill: #f2f2f2;
      }

      .cls-6 {
        fill: #754c24;
      }
    </style>
  </defs>
  <g>
    <rect x=".5" y=".5" width="1926" height="1079"/>
    <path d="M1926,1v1078H1V1h1925M1927,0H0v1080h1927V0h0Z"/>
  </g>
  <g>
    <rect class="cls-2" x=".5" y="800.5" width="1926" height="279"/>
    <path d="M1926,801v278H1v-278h1925M1927,800H0v280h1927v-280h0Z"/>
  </g>
  <g>
    <rect class="cls-4" x="939.5" y="634.5" width="459" height="269"/>
    <path d="M1398,635v268h-458v-268h458M1399,634h-460v270h460v-270h0Z"/>
  </g>
  <g>
    <rect class="cls-1" x="972.5" y="634.5" width="25" height="269"/>
    <path d="M997,635v268h-24v-268h24M998,634h-26v270h26v-270h0Z"/>
  </g>
  <g>
    <rect class="cls-1" x="1031.5" y="634.5" width="25" height="269"/>
    <path d="M1056,635v268h-24v-268h24M1057,634h-26v270h26v-270h0Z"/>
  </g>
  <g>
    <rect class="cls-1" x="1091.5" y="634.5" width="25" height="269"/>
    <path d="M1116,635v268h-24v-268h24M1117,634h-26v270h26v-270h0Z"/>
  </g>
  <g>
    <rect class="cls-1" x="1148.5" y="634.5" width="25" height="269"/>
    <path d="M1173,635v268h-24v-268h24M1174,634h-26v270h26v-270h0Z"/>
  </g>
  <g>
    <rect class="cls-6" x="1247.5" y="384.5" width="24" height="249"/>
    <path d="M1271,385v248h-23v-248h23M1272,384h-25v250h25v-250h0Z"/>
  </g>
  <g>
    <rect class="cls-5" x="1078.5" y="310.5" width="367" height="73"/>
    <path d="M1445,311v72h-366v-72h366M1446,310h-368v74h368v-74h0Z"/>
  </g>
  <path class="cls-1" d="M572.5,131c36.25,0,71.41,7.1,104.51,21.1,31.97,13.52,60.69,32.88,85.35,57.54,24.66,24.66,44.02,53.38,57.54,85.35,14,33.1,21.1,68.26,21.1,104.51s-7.1,71.41-21.1,104.51c-13.52,31.97-32.88,60.69-57.54,85.35s-53.38,44.02-85.35,57.54c-33.1,14-68.26,21.1-104.51,21.1s-71.41-7.1-104.51-21.1c-31.97-13.52-60.69-32.88-85.35-57.54-24.66-24.66-44.02-53.38-57.54-85.35-14-33.1-21.1-68.26-21.1-104.51s7.1-71.41,21.1-104.51c13.52-31.97,32.88-60.69,57.54-85.35,24.66-24.66,53.38-44.02,85.35-57.54,33.1-14,68.26-21.1,104.51-21.1M572.5,126c-151.05,0-273.5,122.45-273.5,273.5s122.45,273.5,273.5,273.5,273.5-122.45,273.5-273.5-122.45-273.5-273.5-273.5h0Z"/>
  <line class="cls-3" x1="382.5" y1="596.5" x2="269.5" y2="799.5"/>
  <line class="cls-3" x1="760.5" y1="598.5" x2="846.5" y2="799.5"/>
  <line class="cls-3" x1="572.5" y1="125.5" x2="572.5" y2="672.5"/>
  <line class="cls-3" x1="299.5" y1="383.5" x2="846.5" y2="383.5"/>
</svg>