<?xml version="1.0" encoding="UTF-8"?>
<svg id="Layer_2" data-name="Layer 2" xmlns="http://www.w3.org/2000/svg" viewBox="0 0 194.93 259.9">
  <defs>
    <style>
      .cls-1 {
        stroke: #f15a29;
      }

      .cls-1, .cls-2, .cls-3, .cls-4, .cls-5 {
        stroke-miterlimit: 10;
      }

      .cls-1, .cls-3 {
        fill: none;
      }

      .cls-1, .cls-4, .cls-5 {
        stroke-width: 5px;
      }

      .cls-2 {
        fill: #231f20;
      }

      .cls-2, .cls-3 {
        stroke-width: 4px;
      }

      .cls-2, .cls-4, .cls-5 {
        stroke: #231f20;
      }

      .cls-3 {
        stroke: #f9ed32;
      }

      .cls-4 {
        fill: #fbb040;
      }

      .cls-5 {
        fill: #fff;
      }
    </style>
  </defs>
  <g id="Layer_1-2" data-name="Layer 1">
    <g>
      <g>
        <circle class="cls-4" cx="102.3" cy="107.32" r="47.84"/>
        <line class="cls-1" x1="86.6" y1="103.85" x2="105.37" y2="116.54"/>
        <line class="cls-1" x1="120.13" y1="103.85" x2="101.36" y2="116.54"/>
        <circle class="cls-2" cx="89.52" cy="87.85" r="2.47"/>
        <circle class="cls-2" cx="115.56" cy="87.85" r="2.47"/>
        <line class="cls-3" x1="72.6" y1="101.25" x2="57.22" y2="91.26"/>
        <line class="cls-3" x1="69.78" y1="107.32" x2="51.45" y2="101.95"/>
        <line class="cls-3" x1="67.84" y1="114.99" x2="49.16" y2="115.7"/>
        <line class="cls-3" x1="69.42" y1="123.1" x2="53.74" y2="132.79"/>
        <line class="cls-3" x1="75.42" y1="132.62" x2="64.91" y2="147.42"/>
        <line class="cls-3" x1="84.4" y1="141.61" x2="74.71" y2="159.05"/>
        <line class="cls-3" x1="93.92" y1="146.72" x2="95.99" y2="160.82"/>
        <line class="cls-3" x1="107.32" y1="150.33" x2="110.75" y2="162.4"/>
        <line class="cls-3" x1="138.16" y1="102.66" x2="155.61" y2="93.67"/>
        <line class="cls-3" x1="141.68" y1="110.2" x2="160.01" y2="112.53"/>
        <line class="cls-3" x1="139.74" y1="119.05" x2="152.96" y2="127.95"/>
        <line class="cls-3" x1="135.51" y1="126.27" x2="150.85" y2="143.9"/>
        <line class="cls-3" x1="129.52" y1="135.09" x2="143.18" y2="152"/>
        <line class="cls-3" x1="122.12" y1="143.54" x2="131.81" y2="159.05"/>
        <line class="cls-3" x1="88.28" y1="68.29" x2="79.12" y2="39.03"/>
        <line class="cls-3" x1="94.95" y1="66.35" x2="91.98" y2="36.21"/>
        <line class="cls-3" x1="102.3" y1="65.65" x2="104.32" y2="28.11"/>
        <line class="cls-3" x1="112.07" y1="66.88" x2="115.56" y2="37.27"/>
        <line class="cls-3" x1="121.94" y1="70.4" x2="131.11" y2="45.02"/>
      </g>
      <path class="cls-5" d="M187.1,104.51c-5.07-3.75-10.43-7.14-15.63-10.71-6.64,6.98-16.58,12.63-25.94,12.03-9.14-.58-16.92-7.54-24.22-13.65-1-.05-2.02-.4-2.97-1.13-3.3-2.55-5.66-5.88-8.33-8.97-7.55,7.43-10.97,18.7-19.07,25.82-2.1,1.84-4.99,1.92-7.07,0-4.35-4.03-7.49-8.95-10.64-13.89-3,5.58-5.86,11.24-9.08,16.71-2.47,4.19-8,2.34-9.15-1.21-.48-.37-.93-.86-1.3-1.48-3-5.07-7.39-9.54-9.47-14.95-5.48,2.41-10.66,5.67-16.55,6.98-3.72.83-7.06.55-10.39-1.42-2.4-1.42-4.41-3.59-6.66-5.32-9.47,28.64-11.6,60.26-1.43,88.33,13.13,36.25,51.49,79.61,97.95,75.47,42.73-3.81,70.19-45.81,79.68-75.47,7.86-24.56,6.93-51.68.25-77.14Z"/>
      <path class="cls-5" d="M26.4,87.21c6.77-2.15,12.75-6.36,19.6-8.29,3.03-.86,6.46,1.57,6.33,4.82-.18,4.52,3.26,8.62,6.29,12.46,3.04-5.64,5.93-11.37,9.18-16.89,2.05-3.47,6.48-2.96,8.63,0,3.61,4.97,6.46,10.46,10.33,15.2,7.22-8.4,11.08-19.35,20.36-26.18,1.82-1.34,4.55-.58,6.06.78,2.33,2.09,4.21,4.54,6.19,6.9,7.59,5.35,14.49,13.08,23.21,16.47,7.76,3.01,18.61-4.37,22.98-10.5,1.45-2.03,4.51-3.47,6.84-1.79,3,2.15,6.07,4.22,9.15,6.28C164.69,39.87,129.45,2.33,96.43,2.5c-31.58.16-65.69,34.84-83.06,78.68,1.99,1.27,3.82,2.77,5.74,4.33,2.72,2.19,3.96,2.76,7.29,1.7Z"/>
    </g>
  </g>
</svg>