<?xml version="1.0" encoding="UTF-8"?>
<svg id="Layer_2" data-name="Layer 2" xmlns="http://www.w3.org/2000/svg" viewBox="0 0 194.93 278.85">
  <defs>
    <style>
      .cls-1 {
        stroke: #f15a29;
      }

      .cls-1, .cls-2, .cls-3, .cls-4, .cls-5 {
        stroke-miterlimit: 10;
      }

      .cls-1, .cls-3 {
        fill: none;
      }

      .cls-1, .cls-4, .cls-5 {
        stroke-width: 5px;
      }

      .cls-2 {
        fill: #231f20;
      }

      .cls-2, .cls-3 {
        stroke-width: 4px;
      }

      .cls-2, .cls-4, .cls-5 {
        stroke: #231f20;
      }

      .cls-3 {
        stroke: #f9ed32;
      }

      .cls-4 {
        fill: #fbb040;
      }

      .cls-5 {
        fill: #fff;
      }
    </style>
  </defs>
  <g id="Layer_1-2" data-name="Layer 1">
    <g>
      <circle class="cls-4" cx="95.18" cy="97.19" r="47.84"/>
      <line class="cls-1" x1="79.48" y1="93.72" x2="98.25" y2="106.41"/>
      <line class="cls-1" x1="113.01" y1="93.72" x2="94.24" y2="106.41"/>
      <circle class="cls-2" cx="82.39" cy="77.72" r="2.47"/>
      <circle class="cls-2" cx="108.43" cy="77.72" r="2.47"/>
      <line class="cls-3" x1="65.47" y1="91.12" x2="50.1" y2="81.13"/>
      <line class="cls-3" x1="62.65" y1="97.19" x2="44.33" y2="91.82"/>
      <line class="cls-3" x1="60.72" y1="104.87" x2="42.03" y2="105.57"/>
      <line class="cls-3" x1="62.3" y1="112.97" x2="46.62" y2="122.67"/>
      <line class="cls-3" x1="68.29" y1="122.49" x2="57.79" y2="137.29"/>
      <line class="cls-3" x1="77.28" y1="131.48" x2="67.59" y2="148.93"/>
      <line class="cls-3" x1="86.8" y1="136.59" x2="88.86" y2="150.69"/>
      <line class="cls-3" x1="100.19" y1="140.2" x2="103.62" y2="152.28"/>
      <line class="cls-3" x1="131.04" y1="92.53" x2="148.49" y2="83.54"/>
      <line class="cls-3" x1="134.56" y1="100.07" x2="152.89" y2="102.4"/>
      <line class="cls-3" x1="132.62" y1="108.92" x2="145.84" y2="117.82"/>
      <line class="cls-3" x1="128.39" y1="116.15" x2="143.73" y2="133.77"/>
      <line class="cls-3" x1="122.4" y1="124.96" x2="136.06" y2="141.88"/>
      <line class="cls-3" x1="115" y1="133.42" x2="124.69" y2="148.93"/>
      <line class="cls-3" x1="81.16" y1="58.16" x2="72" y2="28.9"/>
      <line class="cls-3" x1="87.83" y1="56.22" x2="84.86" y2="26.08"/>
      <line class="cls-3" x1="95.18" y1="55.52" x2="97.2" y2="17.98"/>
      <line class="cls-3" x1="104.95" y1="56.75" x2="108.43" y2="27.14"/>
      <line class="cls-3" x1="114.82" y1="60.28" x2="123.99" y2="34.9"/>
    </g>
    <path class="cls-5" d="M187.1,123.46c-5.07-3.75-10.43-7.14-15.63-10.71-6.64,6.98-16.58,12.63-25.94,12.03-9.14-.58-16.92-7.54-24.22-13.65-1-.05-2.02-.4-2.97-1.13-3.3-2.55-5.66-5.88-8.33-8.97-7.55,7.43-10.97,18.7-19.07,25.82-2.1,1.84-4.99,1.92-7.07,0-4.35-4.03-7.49-8.95-10.64-13.89-3,5.58-5.86,11.24-9.08,16.71-2.47,4.19-8,2.34-9.15-1.21-.48-.37-.93-.86-1.3-1.48-3-5.07-7.39-9.54-9.47-14.95-5.48,2.41-10.66,5.67-16.55,6.98-3.72.83-7.06.55-10.39-1.42-2.4-1.42-4.41-3.59-6.66-5.32-9.47,28.64-11.6,60.26-1.43,88.33,13.13,36.25,51.49,79.61,97.95,75.47,42.73-3.81,70.19-45.81,79.68-75.47,7.86-24.56,6.93-51.68.25-77.14Z"/>
    <path class="cls-5" d="M28.06,87.21c6.77-2.15,12.75-6.36,19.6-8.29,3.03-.86,6.46,1.57,6.33,4.82-.18,4.52,3.26,8.62,6.29,12.46,3.04-5.64,5.93-11.37,9.18-16.89,2.05-3.47,6.48-2.96,8.63,0,3.61,4.97,6.46,10.46,10.33,15.2,7.22-8.4,11.08-19.35,20.36-26.18,1.82-1.34,4.55-.58,6.06.78,2.33,2.09,4.21,4.54,6.19,6.9,7.59,5.35,14.49,13.08,23.21,16.47,7.76,3.01,18.61-4.37,22.98-10.5,1.45-2.03,4.51-3.47,6.84-1.79,3,2.15,6.07,4.22,9.15,6.28C166.36,39.87,131.12,2.33,98.09,2.5c-31.58.16-65.69,34.84-83.06,78.68,1.99,1.27,3.82,2.77,5.74,4.33,2.72,2.19,3.96,2.76,7.29,1.7Z"/>
  </g>
</svg>