<?xml version="1.0" encoding="UTF-8"?>
<svg id="Layer_2" xmlns="http://www.w3.org/2000/svg" viewBox="0 0 511.36 511.36">
  <defs>
    <style>
      .cls-1, .cls-2, .cls-3 {
        fill: #231f20;
      }

      .cls-4, .cls-5 {
        fill: none;
      }

      .cls-4, .cls-5, .cls-3, .cls-6 {
        stroke: #231f20;
        stroke-miterlimit: 10;
      }

      .cls-4, .cls-6 {
        stroke-width: 10px;
      }

      .cls-7 {
        fill: #00a651;
      }

      .cls-5 {
        stroke-width: 6px;
      }

      .cls-2 {
        font-family: ErasITC-Bold, 'Eras Bold ITC';
        font-size: 25.56px;
        font-weight: 700;
      }

      .cls-3 {
        stroke-width: 9px;
      }

      .cls-6 {
        fill: #f15a29;
      }
    </style>
  </defs>
  <g id="Layer_1-2" data-name="Layer_1">
    <g>
      <path class="cls-4" d="M421.64,259.46c-.53-89.54-74.45-162.57-163.32-162.14-88.5.43-161,73.55-161.58,161.58-.59,89.03,72.59,163.34,162.52,163.96"/>
      <circle class="cls-6" cx="255.68" cy="255.68" r="250.68"/>
      <path class="cls-3" d="M262.68,255.68l-.6-154.5c.2,0,.4,0,.6,0,84.76,0,154.5,69.74,154.5,154.5h-154.5Z"/>
      <path class="cls-3" d="M254.47,264.28l.6,154.5c-.2,0-.4,0-.6,0-84.76,0-154.5-69.74-154.5-154.5h154.5Z"/>
      <path class="cls-7" d="M258.32,258.91l-161.58.63c0-.21,0-.42,0-.63,0-88.64,72.94-161.58,161.58-161.58v161.58Z"/>
      <text class="cls-2" transform="translate(270.23 299.32)"><tspan x="0" y="0">Game industry</tspan></text>
      <path class="cls-4" d="M421.64,259.46c.71-90.22-72.99-164.89-162.89-165.45-90.51-.56-164.96,74.23-164.94,164.43.02,90.34,74.75,164.8,165.45,164.43"/>
      <path class="cls-5" d="M134.72,337.29c14.93-13.66,26.29-15.64,33.85-14.97,14.42,1.27,18.04,12.41,32.15,11.97,14.63-.45,17.07-12.62,31.41-11.95,11.75.55,13.32,8.86,25.59,8.95,10.86.08,14.11-6.41,24.66-8.62,7.8-1.64,19.61-.95,36.34,10.62"/>
      <path class="cls-5" d="M195.23,364.69c14.93-13.66,26.29-15.64,33.85-14.97,14.42,1.27,18.04,12.41,32.15,11.97,14.63-.45,17.07-12.62,31.41-11.95,11.75.55,13.32,8.86,25.59,8.95,10.86.08,14.11-6.41,24.66-8.62,7.8-1.64,19.61-.95,36.34,10.62"/>
      <path class="cls-5" d="M255.08,392.09c14.93-13.66,26.29-15.64,33.85-14.97,14.42,1.27,18.04,12.41,32.15,11.97,14.63-.45,17.07-12.62,31.41-11.95,11.75.55,13.32,8.86,25.59,8.95,10.86.08,14.11-6.41,24.66-8.62,7.8-1.64,19.61-.95,36.34,10.62"/>
      <g>
        <path class="cls-1" d="M207.62,491.05c.32-.78.57-1.4.74-1.88.26-.7.59-1.68,1-2.92.41-1.24.67-2.08.8-2.52.06-.22.13-.43.19-.65,1.21.36,2.34.67,3.39.95,1.06.28,2.08.53,3.06.77-.29.9-.47,1.49-.54,1.78-.18-.05-.35-.1-.53-.15-.14-.04-.29-.08-.43-.11-.14-.04-.29-.08-.43-.11-.4-.1-.81-.21-1.21-.31-.14-.04-.55-.14-1.22-.31-.14.46-.29.91-.43,1.37.3.09.6.17.89.26.33.09.67.18,1,.26.29.08.73.18,1.33.32-.23.74-.4,1.33-.51,1.75-.67-.19-1.16-.33-1.49-.41-.55-.14-1.15-.29-1.81-.45-.22.71-.43,1.41-.65,2.12-.07.26-.15.53-.22.79-.02.09-.05.17-.07.26-.46-.13-.91-.26-1.37-.39-.11-.03-.6-.16-1.49-.41Z"/>
        <path class="cls-1" d="M220.72,487.71c.51.11.99.29,1.43.54.44.25.8.55,1.07.91.27.35.45.74.53,1.15.08.42.08.84,0,1.29-.08.43-.23.83-.45,1.19-.22.36-.53.68-.94.95-.41.27-.9.44-1.46.5-.57.06-1.15.02-1.74-.1-.55-.12-1.05-.31-1.52-.57-.47-.26-.83-.58-1.1-.94-.27-.36-.44-.76-.51-1.2-.07-.44-.06-.87.05-1.31.1-.43.29-.83.54-1.19.26-.36.59-.65,1.01-.89.42-.23.9-.38,1.45-.43.55-.06,1.09-.02,1.64.09ZM220.29,489.47c-.27-.06-.52-.04-.76.04-.24.09-.44.24-.6.48-.16.23-.28.5-.35.8-.1.44-.06.8.12,1.09.18.29.45.47.8.55.27.06.52.04.76-.05.24-.09.44-.25.61-.5.16-.24.28-.51.34-.81.05-.25.06-.48.01-.7-.04-.22-.15-.41-.31-.57-.16-.16-.37-.27-.63-.32Z"/>
        <path class="cls-1" d="M231.35,496.17c-.49-.08-.9-.14-1.23-.19-.41-.06-.82-.12-1.23-.18.04-.28.08-.56.12-.83-.18.16-.34.27-.46.35-.12.07-.25.13-.39.18-.14.05-.29.08-.46.11-.17.02-.35.03-.56.03-.21,0-.42-.03-.63-.06-.34-.06-.66-.15-.95-.28-.29-.13-.54-.3-.73-.52-.2-.22-.32-.45-.36-.69-.04-.24-.03-.51.02-.81.01-.07.04-.18.08-.34.12-.45.24-.9.36-1.36.12-.5.25-1.05.39-1.66.09-.37.16-.73.22-1.06.51.1.95.19,1.31.25.37.06.77.13,1.21.2-.2.76-.39,1.52-.59,2.28-.09.35-.15.58-.17.71-.02.13-.04.21-.05.26-.07.43-.03.73.13.91.16.18.36.29.61.33.1.02.21.02.32,0,.11-.01.21-.04.32-.07.09-.04.17-.08.25-.15.09-.07.16-.15.24-.25.09-.12.16-.26.22-.41.08-.21.16-.47.24-.8.05-.24.14-.65.26-1.23.08-.42.17-.84.25-1.26.54.09.98.16,1.32.21.39.06.78.11,1.17.16-.24,1.02-.46,1.99-.65,2.91-.19.92-.39,2.01-.6,3.26Z"/>
        <path class="cls-1" d="M232.75,496.37c.25-.91.48-1.91.7-3.02.22-1.11.39-2.16.54-3.16.5.08.93.13,1.3.18.42.05.83.1,1.22.13-.05.28-.11.55-.16.82.16-.13.29-.24.4-.32.11-.08.25-.15.4-.21.16-.07.32-.12.5-.15.17-.03.36-.06.56-.07.2-.01.41,0,.63.02.3.03.59.09.87.18.28.09.51.2.69.34.18.13.33.29.45.48.11.19.18.38.21.58.02.2.03.41,0,.63-.01.16-.06.49-.14,1-.1.74-.21,1.47-.31,2.21-.06.44-.11.84-.14,1.21-.44-.05-.85-.09-1.23-.13-.52-.05-.99-.09-1.42-.13.08-.37.18-.92.3-1.64.12-.73.19-1.24.23-1.54.05-.46-.01-.79-.18-.99-.17-.2-.39-.32-.67-.35-.25-.03-.49.02-.72.15-.24.13-.43.34-.59.62-.15.28-.3.76-.43,1.43-.13.67-.25,1.36-.35,2.06-.43-.06-.86-.12-1.27-.17-.43-.05-.9-.11-1.41-.17Z"/>
        <path class="cls-1" d="M249.25,497.8c-.47-.03-.85-.05-1.16-.06-.35-.02-.77-.03-1.27-.05.03-.26.05-.52.08-.78-.18.15-.33.27-.46.35-.13.09-.3.17-.5.25-.2.08-.42.14-.65.17-.23.04-.47.04-.71.03-.42-.03-.81-.13-1.16-.3-.35-.17-.65-.4-.88-.68-.24-.28-.4-.61-.5-.98-.1-.37-.13-.75-.09-1.14.05-.55.2-1.08.47-1.59.27-.51.59-.9.98-1.18.38-.28.8-.46,1.26-.55.46-.09.95-.13,1.48-.1.35.02.75.08,1.22.16.06-.49.12-1.17.17-2.05.51.03.93.06,1.25.07.42.02.84.03,1.27.04-.16,1.21-.33,2.7-.49,4.45-.16,1.75-.26,3.06-.29,3.94ZM247.17,492.94c-.22-.06-.43-.1-.63-.11-.41-.02-.77.03-1.07.17-.3.14-.54.36-.71.68-.18.32-.28.63-.3.95-.02.24.01.46.09.65.08.2.2.36.38.48.18.12.38.19.6.2.24.01.46-.04.66-.15.2-.12.37-.29.51-.53.14-.24.24-.53.3-.86.06-.34.12-.82.17-1.47Z"/>
        <path class="cls-1" d="M257.19,496.06c-.05.25-.16.84-.31,1.79-.51.1-.93.16-1.28.19-.35.03-.7.04-1.05.04-.52,0-1-.04-1.43-.12-.44-.07-.81-.2-1.12-.38-.31-.18-.57-.4-.78-.66-.21-.26-.36-.57-.46-.93-.1-.36-.14-.72-.13-1.09.02-.53.14-1.04.37-1.53.23-.5.52-.88.87-1.16.35-.28.74-.47,1.19-.58.44-.11.9-.16,1.36-.16.48,0,.94.06,1.37.17.44.11.81.3,1.11.57.31.27.53.57.66.91.13.34.2.71.21,1.1,0,.23-.02.49-.08.78-1.5.02-3.01.01-4.51,0,0,.07,0,.12,0,.18,0,.44.15.77.48.98.33.21.74.32,1.22.33.29,0,.61-.03.98-.09.37-.06.82-.17,1.35-.33ZM253.24,494.06c.7.01,1.41.02,2.11.02,0-.07,0-.13,0-.18,0-.21-.04-.4-.12-.55-.08-.15-.19-.26-.34-.33-.15-.07-.31-.11-.49-.11-.13,0-.25.02-.37.05-.12.04-.23.09-.32.17-.1.07-.18.16-.24.26-.07.1-.11.19-.14.28-.03.09-.06.22-.1.38Z"/>
        <path class="cls-1" d="M266.02,497.64c-.47.02-.85.03-1.16.05-.35.02-.77.04-1.27.07,0-.26,0-.52,0-.78-.16.16-.3.3-.43.4-.12.1-.28.2-.48.3-.2.1-.41.18-.63.23-.23.06-.46.09-.71.1-.42.01-.81-.05-1.18-.18-.37-.13-.68-.33-.94-.59-.26-.26-.46-.57-.59-.93-.13-.36-.2-.74-.2-1.13,0-.55.1-1.1.31-1.63.22-.53.5-.96.86-1.27.35-.31.76-.54,1.2-.67.45-.14.94-.22,1.46-.24.35-.01.76,0,1.23.04.01-.49,0-1.17-.02-2.05.51-.01.93-.03,1.25-.05.42-.02.84-.05,1.27-.09-.05,1.22-.06,2.72-.05,4.48.01,1.76.04,3.08.09,3.94ZM263.48,493c-.23-.04-.44-.05-.64-.05-.41.02-.76.11-1.04.27-.28.16-.5.41-.65.74-.15.33-.21.66-.21.97,0,.24.06.45.15.64.09.19.23.33.42.44.19.1.39.15.62.14.24,0,.45-.08.64-.21.19-.14.34-.33.46-.58.11-.25.18-.55.21-.89.03-.34.04-.83.03-1.48Z"/>
        <path class="cls-1" d="M270.77,497.29c0-.19,0-.45-.02-.77-.02-.32-.03-.64-.04-.98.42-.39.8-.76,1.14-1.12.55-.59,1.04-1.14,1.45-1.65.33-.41.6-.78.82-1.12.12-.2.2-.36.23-.49.02-.09.03-.18.02-.27-.01-.12-.05-.22-.12-.3-.06-.08-.16-.15-.28-.2-.12-.05-.27-.08-.44-.1-.17-.02-.36-.02-.58,0-.29.03-.6.08-.92.17-.32.08-.75.22-1.3.41.03-.3.06-.59.08-.89.02-.18.05-.52.07-1.03,1.07-.28,2.08-.47,3.03-.58.43-.05.85-.06,1.26-.02.4.03.78.12,1.11.27.34.15.6.33.79.56.19.23.3.48.34.77.02.19.03.38,0,.56-.02.18-.08.4-.18.65-.12.31-.28.63-.48.94-.3.47-.65.96-1.06,1.47-.39.48-.87,1.03-1.44,1.64.24-.02.47-.05.71-.07.17-.02.5-.06,1-.13.5-.07.84-.12,1.03-.15.19-.03.43-.08.71-.14.01.2.02.44.03.74,0,.3.03.66.05,1.09-1.08.13-2.21.26-3.39.38-1.43.15-2.63.27-3.62.36Z"/>
        <path class="cls-1" d="M282.17,487.26c.66-.11,1.28-.08,1.86.08.58.16,1.07.52,1.48,1.09.41.56.7,1.26.85,2.1.12.65.15,1.32.07,2-.07.68-.24,1.24-.5,1.69-.26.45-.64.83-1.14,1.13-.5.31-1.06.51-1.68.61-.52.08-1.03.08-1.51-.01-.48-.09-.92-.29-1.32-.6-.4-.31-.7-.7-.9-1.17-.2-.47-.34-.99-.42-1.54-.09-.67-.09-1.35,0-2.03.1-.68.28-1.24.55-1.7.27-.46.64-.82,1.11-1.09.47-.27.98-.45,1.53-.54ZM282.42,489.07c-.2.03-.36.12-.5.25-.17.17-.28.38-.36.64-.09.31-.14.65-.15,1.04-.01.42.02.88.09,1.37.07.43.16.78.29,1.05.13.27.29.47.49.59.2.13.41.17.64.14.13-.02.25-.07.36-.14.11-.07.22-.2.33-.38.11-.18.19-.43.24-.74.05-.31.08-.63.07-.96,0-.33-.04-.66-.1-.99-.12-.69-.3-1.18-.55-1.49-.25-.3-.54-.43-.87-.37Z"/>
        <path class="cls-1" d="M288.11,494.92c-.02-.19-.05-.45-.1-.76-.05-.31-.09-.64-.14-.97.38-.43.72-.84,1.02-1.23.49-.64.92-1.24,1.28-1.79.29-.44.52-.84.7-1.2.1-.21.16-.38.18-.51.02-.09.01-.18,0-.27-.02-.12-.07-.21-.15-.29-.07-.08-.17-.13-.3-.17-.13-.04-.28-.05-.45-.06-.17,0-.36.02-.57.06-.29.06-.59.15-.9.26-.31.11-.73.29-1.26.54,0-.3,0-.6,0-.9,0-.18,0-.52-.03-1.03,1.04-.39,2.03-.68,2.97-.88.43-.09.85-.14,1.25-.15.41-.01.79.04,1.14.15.35.11.63.27.85.48.21.21.35.45.42.73.04.18.06.37.06.56,0,.18-.04.4-.11.67-.09.32-.22.65-.39.99-.25.5-.55,1.02-.91,1.58-.34.52-.77,1.11-1.28,1.78.23-.05.47-.1.7-.14.17-.04.49-.11.98-.23.49-.12.83-.2,1.02-.25.19-.05.42-.12.69-.22.03.19.07.44.11.73.04.29.09.65.16,1.08-1.07.24-2.18.48-3.35.73-1.41.3-2.6.54-3.58.73Z"/>
        <path class="cls-1" d="M300.15,492.2c-.05-.36-.12-.75-.19-1.15-.08-.41-.14-.73-.19-.96-.23.06-.46.13-.69.19-.17.04-.35.09-.52.13-.79.22-1.58.43-2.37.63,0-.06-.02-.13-.03-.19,0-.04-.03-.18-.08-.39-.08-.38-.15-.77-.23-1.15-.02-.1-.05-.22-.07-.33.31-.59.64-1.33,1.01-2.19.37-.87.69-1.75.98-2.65.63-.15,1.19-.3,1.69-.44.47-.13.95-.27,1.44-.41.17.86.35,1.69.53,2.5.19.81.34,1.42.45,1.84.2-.05.44-.11.7-.19.21-.06.33-.1.36-.11.03-.01.11-.04.24-.08.12.48.26.98.41,1.5.03.09.05.19.08.28-.25.06-.63.16-1.12.29-.09.03-.17.05-.26.08.07.39.25,1.09.53,2.08-.42.11-.86.23-1.31.35-.42.11-.88.24-1.39.39ZM299.68,488.31c-.19-.91-.39-1.81-.59-2.72-.16.48-.3.87-.41,1.15-.11.29-.19.49-.24.62-.2.48-.4.95-.6,1.43.61-.16,1.22-.32,1.83-.48Z"/>
      </g>
    </g>
  </g>
</svg>