<?xml version="1.0" encoding="UTF-8"?>
<svg id="Layer_2" data-name="Layer 2" xmlns="http://www.w3.org/2000/svg" viewBox="0 0 381.53 273.73">
  <defs>
    <style>
      .cls-1 {
        stroke: #f15a29;
      }

      .cls-1, .cls-2, .cls-3, .cls-4, .cls-5 {
        stroke-miterlimit: 10;
      }

      .cls-1, .cls-3 {
        fill: none;
      }

      .cls-1, .cls-4, .cls-5 {
        stroke-width: 5px;
      }

      .cls-2 {
        fill: #231f20;
      }

      .cls-2, .cls-3 {
        stroke-width: 4px;
      }

      .cls-2, .cls-4, .cls-5 {
        stroke: #231f20;
      }

      .cls-3 {
        stroke: #f9ed32;
      }

      .cls-4 {
        fill: #fbb040;
      }

      .cls-5 {
        fill: #fff;
      }
    </style>
  </defs>
  <g id="Layer_1-2" data-name="Layer 1">
    <g>
      <g>
        <g>
          <circle class="cls-4" cx="284.12" cy="79.32" r="47.84"/>
          <line class="cls-1" x1="268.42" y1="75.85" x2="287.2" y2="88.54"/>
          <line class="cls-1" x1="301.96" y1="75.85" x2="283.18" y2="88.54"/>
          <circle class="cls-2" cx="271.34" cy="59.85" r="2.47"/>
          <circle class="cls-2" cx="297.38" cy="59.85" r="2.47"/>
          <line class="cls-3" x1="254.42" y1="73.25" x2="239.04" y2="63.26"/>
          <line class="cls-3" x1="251.6" y1="79.32" x2="233.27" y2="73.95"/>
          <line class="cls-3" x1="249.66" y1="87" x2="230.98" y2="87.7"/>
          <line class="cls-3" x1="251.25" y1="95.1" x2="235.56" y2="104.8"/>
          <line class="cls-3" x1="257.24" y1="104.62" x2="246.73" y2="119.42"/>
          <line class="cls-3" x1="266.23" y1="113.61" x2="256.53" y2="131.06"/>
          <line class="cls-3" x1="275.74" y1="118.72" x2="277.81" y2="132.82"/>
          <line class="cls-3" x1="289.14" y1="122.33" x2="292.57" y2="134.41"/>
          <line class="cls-3" x1="319.98" y1="74.66" x2="337.43" y2="65.67"/>
          <line class="cls-3" x1="323.51" y1="82.2" x2="341.83" y2="84.53"/>
          <line class="cls-3" x1="321.57" y1="91.05" x2="334.78" y2="99.95"/>
          <line class="cls-3" x1="317.34" y1="98.28" x2="332.67" y2="115.9"/>
          <line class="cls-3" x1="311.34" y1="107.09" x2="325" y2="124.01"/>
          <line class="cls-3" x1="303.94" y1="115.55" x2="313.64" y2="131.06"/>
          <line class="cls-3" x1="270.1" y1="40.29" x2="260.94" y2="11.03"/>
          <line class="cls-3" x1="276.77" y1="38.35" x2="273.8" y2="8.21"/>
          <line class="cls-3" x1="284.12" y1="37.65" x2="286.14" y2=".11"/>
          <line class="cls-3" x1="293.9" y1="38.88" x2="297.38" y2="9.27"/>
          <line class="cls-3" x1="303.77" y1="42.41" x2="312.93" y2="17.03"/>
        </g>
        <path class="cls-5" d="M373.7,118.34c-5.07-3.75-10.43-7.14-15.63-10.71-6.64,6.98-16.58,12.63-25.94,12.03-9.14-.58-16.92-7.54-24.22-13.65-1-.05-2.02-.4-2.97-1.13-3.3-2.55-5.66-5.88-8.33-8.97-7.55,7.43-10.97,18.7-19.07,25.82-2.1,1.84-4.99,1.92-7.07,0-4.35-4.03-7.49-8.95-10.64-13.89-3,5.58-5.86,11.24-9.08,16.71-2.47,4.19-8,2.34-9.15-1.21-.48-.37-.93-.86-1.3-1.48-3-5.07-7.39-9.54-9.47-14.95-5.48,2.41-10.66,5.67-16.55,6.98-3.72.83-7.06.55-10.39-1.42-2.4-1.42-4.41-3.59-6.66-5.32-9.47,28.64-11.6,60.26-1.43,88.33,13.13,36.25,51.49,79.61,97.95,75.47,42.73-3.81,70.19-45.81,79.68-75.47,7.86-24.56,6.93-51.68.25-77.14Z"/>
      </g>
      <path class="cls-5" d="M160.21,183.9c-6.69,2.41-12.5,6.84-19.28,9.03-2.99.97-6.51-1.32-6.51-4.58,0-4.52-3.59-8.5-6.75-12.22-2.83,5.75-5.49,11.58-8.54,17.23-1.92,3.55-6.37,3.2-8.63.33-3.79-4.83-6.85-10.21-10.89-14.8-6.9,8.66-10.34,19.75-19.36,26.93-1.77,1.41-4.52.75-6.08-.55-2.4-2-4.38-4.37-6.45-6.66-7.79-5.06-14.97-12.53-23.81-15.58-7.87-2.72-18.43,5.07-22.57,11.36-1.37,2.08-4.37,3.64-6.77,2.05-3.08-2.04-6.23-3.98-9.38-5.93,18.61,45.92,55.25,82.11,88.24,80.69,31.55-1.35,64.33-37.29,80.04-81.76-2.04-1.2-3.92-2.63-5.9-4.11-2.8-2.09-4.06-2.61-7.35-1.42Z"/>
    </g>
  </g>
</svg>