<?xml version="1.0" encoding="UTF-8"?>
<svg id="Layer_2" data-name="Layer 2" xmlns="http://www.w3.org/2000/svg" viewBox="0 0 194.93 257.28">
  <defs>
    <style>
      .cls-1 {
        fill: #fff;
        stroke: #231f20;
        stroke-miterlimit: 10;
        stroke-width: 5px;
      }
    </style>
  </defs>
  <g id="Layer_1-2" data-name="Layer 1">
    <path class="cls-1" d="M171.47,91.18c-6.64,6.98-16.58,12.63-25.94,12.03-12.04-.77-21.73-12.6-31.05-18.99-5.28-3.62-.27-12.28,5.05-8.63,7.82,5.36,14.85,13.41,23.79,16.89,7.76,3.01,18.61-4.37,22.98-10.5,1.45-2.03,4.51-3.47,6.84-1.79,3,2.15,6.07,4.22,9.15,6.28C165.43,39.87,130.18,2.33,97.16,2.5c-31.58.16-65.69,34.84-83.06,78.68,1.99,1.27,3.82,2.77,5.74,4.33,2.72,2.19,3.96,2.76,7.29,1.7,6.77-2.15,12.75-6.36,19.6-8.29,3.03-.86,6.46,1.57,6.33,4.82-.25,6.19,6.31,11.61,9.27,16.63,3.29,5.56-5.36,10.58-8.63,5.05-3-5.07-7.39-9.54-9.47-14.95-5.48,2.41-10.66,5.67-16.55,6.98-3.72.83-7.06.55-10.39-1.42-2.4-1.42-4.41-3.59-6.66-5.32-9.47,28.64-11.6,60.26-1.43,88.33,13.13,36.25,51.49,79.61,97.95,75.47,42.73-3.81,70.19-45.81,79.68-75.47,7.86-24.56,6.93-51.68.25-77.14-5.07-3.75-10.43-7.14-15.63-10.71Z"/>
  </g>
</svg>